<?xml version="1.0" encoding="UTF-8"?>
<svg xmlns="http://www.w3.org/2000/svg" xmlns:xlink="http://www.w3.org/1999/xlink" width="24px" height="24px" viewBox="0 0 24 24" version="1.1">
<g id="surface1">
<path style=" stroke:none;fill-rule:nonzero;fill:rgb(0%,0%,0%);fill-opacity:1;" d="M 23.515625 5 C 23.378906 4.925781 23.222656 4.886719 23.070312 4.886719 C 22.898438 4.886719 22.722656 4.9375 22.570312 5.035156 L 17.660156 8.027344 L 17.660156 6.316406 C 17.660156 5.492188 16.988281 4.824219 16.164062 4.824219 L 1.492188 4.824219 C 0.667969 4.824219 0 5.492188 0 6.316406 L 0 17.683594 C 0 18.507812 0.667969 19.175781 1.492188 19.175781 L 16.164062 19.175781 C 16.988281 19.175781 17.660156 18.507812 17.660156 17.683594 L 17.660156 15.972656 L 22.570312 18.964844 C 22.722656 19.0625 22.894531 19.113281 23.070312 19.113281 C 23.222656 19.113281 23.378906 19.074219 23.515625 19 C 23.8125 18.835938 24 18.523438 24 18.183594 L 24 5.816406 C 24 5.476562 23.816406 5.164062 23.515625 5 Z M 21.488281 15.359375 L 17.660156 13.027344 L 17.660156 10.972656 L 21.488281 8.636719 Z M 21.488281 15.359375 "/>
</g>
</svg>
