<?xml version="1.0" encoding="UTF-8"?>
<svg xmlns="http://www.w3.org/2000/svg" xmlns:xlink="http://www.w3.org/1999/xlink" width="48px" height="48px" viewBox="0 0 48 48" version="1.1">
<g id="surface1">
<path style=" stroke:none;fill-rule:nonzero;fill:rgb(0%,0%,0%);fill-opacity:1;" d="M 47.035156 10.003906 C 46.753906 9.851562 46.449219 9.777344 46.144531 9.777344 C 45.792969 9.777344 45.445312 9.875 45.140625 10.070312 L 35.316406 16.058594 L 35.316406 12.632812 C 35.316406 10.984375 33.980469 9.644531 32.332031 9.644531 L 2.984375 9.644531 C 1.335938 9.644531 0 10.984375 0 12.632812 L 0 35.367188 C 0 37.015625 1.335938 38.355469 2.984375 38.355469 L 32.332031 38.355469 C 33.980469 38.355469 35.316406 37.015625 35.316406 35.367188 L 35.316406 31.941406 L 45.140625 37.929688 C 45.445312 38.125 45.792969 38.222656 46.144531 38.222656 C 46.449219 38.222656 46.753906 38.148438 47.03125 37.996094 C 47.628906 37.671875 48 37.046875 48 36.367188 L 48 11.632812 C 48 10.953125 47.628906 10.328125 47.035156 10.003906 Z M 42.972656 30.722656 L 35.316406 26.054688 L 35.316406 21.945312 L 42.972656 17.277344 Z M 42.972656 30.722656 "/>
</g>
</svg>
